<?xml version="1.0" standalone="no"?>
<!DOCTYPE svg PUBLIC "-//W3C//DTD SVG 20010904//EN"
 "http://www.w3.org/TR/2001/REC-SVG-20010904/DTD/svg10.dtd">
<svg version="1.0" xmlns="http://www.w3.org/2000/svg"
 width="700.000000pt" height="700.000000pt" viewBox="0 0 700.000000 700.000000"
 preserveAspectRatio="xMidYMid meet">
<metadata>
Created by potrace 1.11, written by Peter Selinger 2001-2013
</metadata>
<g transform="translate(0.000000,700.000000) scale(0.100000,-0.100000)"
fill="#000000" stroke="none">
<path d="M3438 6163 c-42 -26 -52 -58 -53 -178 l-1 -110 -135 -2 c-162 -2
-190 -7 -216 -36 -41 -44 -45 -102 -12 -148 29 -41 64 -50 219 -52 l144 -2 0
-193 c1 -107 -1 -197 -4 -202 -3 -4 -23 -13 -44 -20 -108 -35 -228 -136 -320
-269 -54 -78 -115 -211 -131 -284 -13 -63 -13 -256 0 -349 l7 -48 -62 43
c-219 150 -497 268 -710 302 -25 4 -54 9 -65 12 -11 2 -77 6 -146 7 -321 9
-580 -92 -790 -305 -150 -152 -288 -430 -318 -636 -10 -70 -8 -248 4 -318 17
-102 85 -269 154 -380 134 -212 407 -472 645 -611 66 -38 66 -38 66 -84 1 -25
1 -276 1 -559 -1 -593 -6 -560 91 -616 32 -19 61 -35 64 -35 2 0 21 -11 42
-23 30 -19 168 -83 277 -127 155 -64 505 -154 680 -175 84 -10 100 -12 142
-19 177 -28 657 -28 908 -1 48 5 118 15 145 20 14 2 45 7 70 11 24 3 47 7 50
9 3 2 23 6 45 9 132 21 463 118 570 166 198 90 346 169 382 202 13 12 25 35
28 52 4 17 7 260 8 541 l2 509 80 49 c85 52 278 185 311 215 11 9 46 40 79 67
301 253 499 561 544 850 12 77 7 265 -9 330 -23 93 -81 248 -100 265 -3 3 -21
30 -41 60 -144 219 -395 404 -654 484 -121 37 -182 46 -342 50 -112 3 -145 0
-273 -19 -175 -26 -429 -124 -590 -227 l-56 -36 3 123 c2 86 -2 144 -13 192
-55 238 -261 491 -450 553 -21 7 -41 16 -44 20 -4 6 -5 361 -1 392 1 4 58 7
129 7 167 -1 196 5 229 48 43 56 32 121 -27 163 -27 19 -43 21 -180 22 -132 0
-150 2 -151 17 0 9 -2 60 -3 113 -1 81 -5 101 -22 125 -39 53 -104 68 -156 36z"/>
</g>
</svg>
